<svg width="30" height="30" viewBox="0 0 30 30" fill="none" xmlns="http://www.w3.org/2000/svg">
<path d="M15 3C11.8174 3 8.76515 4.26428 6.51472 6.51472C4.26428 8.76515 3 11.8174 3 15C3 18.1826 4.26428 21.2348 6.51472 23.4853C8.76515 25.7357 11.8174 27 15 27C18.1826 27 21.2348 25.7357 23.4853 23.4853C25.7357 21.2348 27 18.1826 27 15C27 11.8174 25.7357 8.76515 23.4853 6.51472C21.2348 4.26428 18.1826 3 15 3ZM0 15C0 6.7155 6.7155 0 15 0C23.2845 0 30 6.7155 30 15C30 23.2845 23.2845 30 15 30C6.7155 30 0 23.2845 0 15ZM15 7.5C15.3978 7.5 15.7794 7.65804 16.0607 7.93934C16.342 8.22064 16.5 8.60218 16.5 9V13.5H21C21.3978 13.5 21.7794 13.658 22.0607 13.9393C22.342 14.2206 22.5 14.6022 22.5 15C22.5 15.3978 22.342 15.7794 22.0607 16.0607C21.7794 16.342 21.3978 16.5 21 16.5H16.5V21C16.5 21.3978 16.342 21.7794 16.0607 22.0607C15.7794 22.342 15.3978 22.5 15 22.5C14.6022 22.5 14.2206 22.342 13.9393 22.0607C13.658 21.7794 13.5 21.3978 13.5 21V16.5H9C8.60218 16.5 8.22064 16.342 7.93934 16.0607C7.65804 15.7794 7.5 15.3978 7.5 15C7.5 14.6022 7.65804 14.2206 7.93934 13.9393C8.22064 13.658 8.60218 13.5 9 13.5H13.5V9C13.5 8.60218 13.658 8.22064 13.9393 7.93934C14.2206 7.65804 14.6022 7.5 15 7.5Z" fill="#00E5A8"/>
</svg>
