<svg width="45" height="45" viewBox="0 0 45 45" fill="none" xmlns="http://www.w3.org/2000/svg">
<path fill-rule="evenodd" clip-rule="evenodd" d="M22.3709 0.000453949C10.016 0.000453949 0 10.0214 0 22.3826C0 33.7321 8.44359 43.1074 19.3884 44.5662V40.0562C19.3884 38.7844 18.5867 37.6413 17.3818 37.2371C11.0669 35.1149 6.54945 29.0757 6.71569 22.0051C6.91827 13.3969 13.9268 6.629 22.5325 6.71577C31.1067 6.80255 38.0308 13.7836 38.0308 22.3826C38.0308 22.5785 38.0259 22.7736 38.0187 22.9677C38.017 23.0111 38.0156 23.0547 38.0139 23.0984C38.0056 23.2786 37.9946 23.4586 37.9805 23.6375C37.976 23.6944 37.9705 23.7512 37.9653 23.8077C37.9543 23.9328 37.9416 24.0565 37.9275 24.1802C37.9116 24.3212 37.8934 24.4607 37.8737 24.5999C37.8651 24.6634 37.8565 24.727 37.8469 24.7902C35.9296 37.426 19.4804 44.528 19.3902 44.5667C20.3656 44.6965 21.3604 44.7646 22.3709 44.7646C34.7261 44.7646 44.742 34.7439 44.742 22.3826C44.742 10.0214 34.7261 0.000453949 22.3709 0.000453949Z" fill="#5FCAF4"/>
<mask id="mask0_1481_28267" style="mask-type:luminance" maskUnits="userSpaceOnUse" x="0" y="0" width="45" height="45">
<path d="M0 44.7656H44.7298V0.00143051H0V44.7656Z" fill="white"/>
</mask>
<g mask="url(#mask0_1481_28267)">
<mask id="mask1_1481_28267" style="mask-type:luminance" maskUnits="userSpaceOnUse" x="0" y="0" width="45" height="45">
<path d="M22.3709 0.00240707C10.016 0.00240707 0 10.0234 0 22.3845C0 33.734 8.44359 43.1093 19.3884 44.5682V40.0582C19.3884 38.7864 18.5867 37.6432 17.3818 37.239C11.0669 35.1169 6.54945 29.0776 6.71569 22.0071C6.91827 13.3989 13.9268 6.63095 22.5325 6.71773C31.1067 6.8045 38.0308 13.7855 38.0308 22.3845C38.0308 22.5805 38.0259 22.7755 38.0187 22.9696C38.017 23.0131 38.0156 23.0567 38.0139 23.1004C38.0056 23.2806 37.9946 23.4606 37.9805 23.6395C37.976 23.6964 37.9705 23.7531 37.9653 23.8096C37.9543 23.9347 37.9416 24.0584 37.9275 24.1822C37.9116 24.3232 37.8934 24.4627 37.8737 24.6019C37.8651 24.6653 37.8565 24.729 37.8469 24.7922C35.9296 37.428 19.4804 44.53 19.3902 44.5686C20.3656 44.6984 21.3604 44.7666 22.3709 44.7666C34.7261 44.7666 44.742 34.7459 44.742 22.3845C44.742 10.0234 34.7261 0.00240707 22.3709 0.00240707Z" fill="white"/>
</mask>
<g mask="url(#mask1_1481_28267)">
<path d="M-3.39648 48.1641H48.1385V-3.39329H-3.39648V48.1641Z" fill="#5FCAF4"/>
</g>
</g>
</svg>
