
<svg width="33" height="32" viewBox="0 0 33 32" fill="none" xmlns="http://www.w3.org/2000/svg">
<path d="M20.9818 3.84692C21.0825 5.1616 20.6668 6.46374 19.8228 7.47681C19.4187 7.97942 18.9059 8.38378 18.3228 8.65944C17.7398 8.93511 17.1018 9.07488 16.457 9.06824C16.4158 8.43603 16.4997 7.80191 16.7037 7.20213C16.9078 6.60235 17.2281 6.04867 17.6463 5.57274C18.5016 4.59854 19.6925 3.98234 20.9818 3.84692Z" fill="#143448"/>
<path d="M23.3337 13.4154C22.9052 14.1704 22.6747 15.0214 22.6635 15.8894C22.6645 16.8657 22.9529 17.8201 23.4928 18.6336C24.0326 19.4471 24.8 20.0837 25.6992 20.4641C25.3456 21.6125 24.8127 22.6979 24.1202 23.6799C23.1901 25.0712 22.215 26.4305 20.6672 26.4556C19.9311 26.4726 19.4342 26.2609 18.9164 26.0403C18.3764 25.8103 17.8136 25.5705 16.9329 25.5705C15.9989 25.5705 15.411 25.818 14.8439 26.0566C14.3538 26.2629 13.8794 26.4626 13.2107 26.4903C11.7367 26.5449 10.6102 25.0054 9.64634 23.6271C7.71983 20.8125 6.21972 15.6951 8.23083 12.2131C8.6951 11.3788 9.36758 10.679 10.1827 10.1819C10.9979 9.68477 11.9279 9.40727 12.8822 9.37643C13.7182 9.35924 14.5204 9.68145 15.2237 9.96395C15.7616 10.18 16.2416 10.3728 16.6347 10.3728C16.9802 10.3728 17.4468 10.1876 17.9907 9.97177C18.8473 9.63177 19.8955 9.21576 20.9637 9.32788C21.7823 9.3535 22.5836 9.56963 23.3041 9.95913C24.0246 10.3486 24.6443 10.9007 25.1141 11.5716C24.3746 12.0263 23.7621 12.6605 23.3337 13.4154Z" fill="#143448"/>
</svg>
