<svg width="30" height="30" viewBox="0 0 30 30" fill="none" xmlns="http://www.w3.org/2000/svg">
<path d="M15 16.75L18.625 20.375C18.8542 20.6042 19.1458 20.7188 19.5 20.7188C19.8542 20.7188 20.1458 20.6042 20.375 20.375C20.6042 20.1458 20.7188 19.8542 20.7188 19.5C20.7188 19.1458 20.6042 18.8542 20.375 18.625L16.75 15L20.375 11.375C20.6042 11.1458 20.7188 10.8542 20.7188 10.5C20.7188 10.1458 20.6042 9.85417 20.375 9.625C20.1458 9.39583 19.8542 9.28125 19.5 9.28125C19.1458 9.28125 18.8542 9.39583 18.625 9.625L15 13.25L11.375 9.625C11.1458 9.39583 10.8542 9.28125 10.5 9.28125C10.1458 9.28125 9.85417 9.39583 9.625 9.625C9.39583 9.85417 9.28125 10.1458 9.28125 10.5C9.28125 10.8542 9.39583 11.1458 9.625 11.375L13.25 15L9.625 18.625C9.39583 18.8542 9.28125 19.1458 9.28125 19.5C9.28125 19.8542 9.39583 20.1458 9.625 20.375C9.85417 20.6042 10.1458 20.7188 10.5 20.7188C10.8542 20.7188 11.1458 20.6042 11.375 20.375L15 16.75ZM15 27.5C13.2708 27.5 11.6458 27.1717 10.125 26.515C8.60417 25.8583 7.28125 24.9679 6.15625 23.8438C5.03125 22.7196 4.14083 21.3967 3.485 19.875C2.82917 18.3533 2.50083 16.7283 2.5 15C2.49917 13.2717 2.8275 11.6467 3.485 10.125C4.1425 8.60333 5.03292 7.28042 6.15625 6.15625C7.27958 5.03208 8.6025 4.14167 10.125 3.485C11.6475 2.82833 13.2725 2.5 15 2.5C16.7275 2.5 18.3525 2.82833 19.875 3.485C21.3975 4.14167 22.7204 5.03208 23.8438 6.15625C24.9671 7.28042 25.8579 8.60333 26.5162 10.125C27.1746 11.6467 27.5025 13.2717 27.5 15C27.4975 16.7283 27.1692 18.3533 26.515 19.875C25.8608 21.3967 24.9704 22.7196 23.8438 23.8438C22.7171 24.9679 21.3942 25.8587 19.875 26.5162C18.3558 27.1737 16.7308 27.5017 15 27.5ZM15 25C17.7917 25 20.1562 24.0312 22.0937 22.0938C24.0312 20.1562 25 17.7917 25 15C25 12.2083 24.0312 9.84375 22.0937 7.90625C20.1562 5.96875 17.7917 5 15 5C12.2083 5 9.84375 5.96875 7.90625 7.90625C5.96875 9.84375 5 12.2083 5 15C5 17.7917 5.96875 20.1562 7.90625 22.0938C9.84375 24.0312 12.2083 25 15 25Z" fill="#FF383C"/>
</svg>
