<svg width="20" height="20" viewBox="0 0 20 20" fill="none" xmlns="http://www.w3.org/2000/svg">
<path d="M12.5 6.66634H12.5083M3.33331 12.4996L6.66665 9.1663C7.04669 8.8006 7.4778 8.60807 7.91665 8.60807C8.35549 8.60807 8.7866 8.8006 9.16665 9.1663L13.3333 13.333M11.6666 11.6663L12.5 10.833C12.88 10.4673 13.3111 10.2747 13.75 10.2747C14.1888 10.2747 14.6199 10.4673 15 10.833L16.6666 12.4996M5.83331 3.33301H14.1666C15.5474 3.33301 16.6666 4.4523 16.6666 5.83301V14.1663C16.6666 15.5471 15.5474 16.6663 14.1666 16.6663H5.83331C4.4526 16.6663 3.33331 15.5471 3.33331 14.1663V5.83301C3.33331 4.4523 4.4526 3.33301 5.83331 3.33301Z" stroke="#2979FF" stroke-width="1.5" stroke-linecap="round" stroke-linejoin="round"/>
</svg>
