<svg width="35" height="35" viewBox="0 0 35 35" fill="none" xmlns="http://www.w3.org/2000/svg">
<path d="M15.2123 30.2795C9.05497 29.1929 4.34644 23.8324 4.34644 17.3854C4.34644 10.2139 10.214 4.34634 17.3855 4.34634C24.5569 4.34634 30.4245 10.2139 30.4245 17.3854C30.4245 23.8324 25.716 29.1929 19.5586 30.2795L18.8342 29.7H15.9367L15.2123 30.2795Z" fill="#F4F7FA"/>
<path d="M22.4561 21.0073L23.0356 17.3854H19.5585V14.85C19.5585 13.8358 19.9207 13.039 21.5143 13.039H23.1804V9.70682C22.2387 9.56195 21.2246 9.41707 20.2829 9.41707C17.3129 9.41707 15.2121 11.228 15.2121 14.4878V17.3854H11.9524V21.0073H15.2121V30.2071C15.9365 30.352 16.6609 30.4244 17.3853 30.4244C18.1097 30.4244 18.8341 30.352 19.5585 30.2071V21.0073H22.4561Z" fill="#2979FF"/>
</svg>
