<svg width="45" height="41" viewBox="0 0 45 41" fill="none" xmlns="http://www.w3.org/2000/svg">
<path d="M12.2023 24.4046C18.9415 24.4046 24.4046 18.9415 24.4046 12.2023C24.4046 5.46316 18.9415 0 12.2023 0C5.46316 0 0 5.46316 0 12.2023C0 18.9415 5.46316 24.4046 12.2023 24.4046Z" fill="#4285F4"/>
<path d="M32.5397 24.4045C35.9093 24.4045 38.6409 21.6729 38.6409 18.3033C38.6409 14.9337 35.9093 12.2021 32.5397 12.2021C29.1702 12.2021 26.4386 14.9337 26.4386 18.3033C26.4386 21.6729 29.1702 24.4045 32.5397 24.4045Z" fill="#EA4335"/>
<path d="M32.5397 40.6746C36.4709 40.6746 39.6578 37.4878 39.6578 33.5566C39.6578 29.6253 36.4709 26.4385 32.5397 26.4385C28.6085 26.4385 25.4216 29.6253 25.4216 33.5566C25.4216 37.4878 28.6085 40.6746 32.5397 40.6746Z" fill="#FBBC05"/>
<path d="M41.6915 14.2359C43.3763 14.2359 44.7421 12.8701 44.7421 11.1853C44.7421 9.50056 43.3763 8.13477 41.6915 8.13477C40.0067 8.13477 38.6409 9.50056 38.6409 11.1853C38.6409 12.8701 40.0067 14.2359 41.6915 14.2359Z" fill="#34A853"/>
</svg>
