<svg width="33" height="32" viewBox="0 0 33 32" fill="none" xmlns="http://www.w3.org/2000/svg">
<path fill-rule="evenodd" clip-rule="evenodd" d="M27.38 16.2576C27.38 15.454 27.3079 14.6813 27.1739 13.9395H16.5V18.3234H22.5994C22.3366 19.7401 21.5382 20.9404 20.3379 21.744V24.5877H24.0006C26.1436 22.6146 27.38 19.7092 27.38 16.2576Z" fill="#143448"/>
<path fill-rule="evenodd" clip-rule="evenodd" d="M16.5 27.3333C19.56 27.3333 22.1254 26.3185 24.0006 24.5876L20.3379 21.7439C19.323 22.4239 18.0248 22.8258 16.5 22.8258C13.5481 22.8258 11.0497 20.8321 10.1584 18.1533H6.37207V21.0897C8.23692 24.7936 12.0697 27.3333 16.5 27.3333Z" fill="#143448"/>
<path fill-rule="evenodd" clip-rule="evenodd" d="M10.1585 18.1534C9.93179 17.4734 9.803 16.7471 9.803 16.0001C9.803 15.2531 9.93179 14.5268 10.1585 13.8468V10.9104H6.37208C5.60451 12.4404 5.16663 14.1713 5.16663 16.0001C5.16663 17.8289 5.60451 19.5598 6.37208 21.0898L10.1585 18.1534Z" fill="#143448"/>
<path fill-rule="evenodd" clip-rule="evenodd" d="M16.5 9.17433C18.1639 9.17433 19.6578 9.74615 20.8324 10.8692L24.083 7.61857C22.1203 5.78978 19.5548 4.66675 16.5 4.66675C12.0697 4.66675 8.23692 7.20645 6.37207 10.9104L10.1584 13.8468C11.0497 11.168 13.5481 9.17433 16.5 9.17433Z" fill="#143448"/>
</svg>
