<svg width="45" height="45" viewBox="0 0 45 45" fill="none" xmlns="http://www.w3.org/2000/svg">
<path d="M6.10739 6.10547H38.6385V38.6365H6.10739V6.10547Z" fill="url(#paint0_linear_1481_28282)"/>
<path d="M21.5542 0.3125C20.4792 0.3125 18.4181 0.370329 15.7943 0.716928C11.6978 1.26 7.98453 2.71053 5.26511 5.26721C2.70843 7.987 1.25901 11.6991 0.716316 15.7964C0.196602 19.7087 0.324121 22.3733 0.324121 22.3733C0.324121 22.3733 0.196602 25.0371 0.716316 28.9502C1.25938 33.0467 2.70843 36.7607 5.26511 39.4794C7.98453 42.0364 11.6978 43.4866 15.7943 44.0297C18.4151 44.3774 20.4747 44.4341 21.5512 44.4341C22.0802 44.4341 22.3712 44.4211 22.3712 44.4211C22.3712 44.4211 22.6626 44.4341 23.1923 44.4341C24.2673 44.4341 26.3284 44.3774 28.9492 44.03C33.0465 43.4866 36.7586 42.0364 39.4773 39.4794C42.0343 36.7607 43.4856 33.0467 44.0276 28.9502C44.5465 25.0367 44.4186 22.3733 44.4186 22.3733C44.4186 22.3733 44.5465 19.7091 44.0276 15.7964C43.4856 11.6991 42.0343 7.98662 39.4773 5.26721C36.7586 2.71053 33.0468 1.26 28.9495 0.716928C26.3254 0.370329 24.2629 0.3125 23.1882 0.3125C22.6611 0.3125 22.3712 0.325845 22.3712 0.325845C22.3712 0.325845 22.0813 0.3125 21.5542 0.3125ZM22.3712 7.81277C24.5138 7.81277 26.2553 9.55503 26.2553 11.6969C26.2553 13.573 24.919 15.1414 23.1489 15.5021V18.2819C25.6937 18.6593 27.6543 20.8508 27.6543 23.4995C27.6543 26.4124 25.2841 28.7826 22.3712 28.7826C19.4583 28.7826 17.0895 26.4124 17.0895 23.4995C17.0895 23.2011 17.1196 22.9108 17.1674 22.6265L14.5221 21.7668C14.1825 22.3638 13.691 22.8604 13.0977 23.2062C12.5043 23.5521 11.83 23.735 11.1432 23.7363C10.7462 23.7363 10.3418 23.6763 9.94476 23.5473C7.90742 22.886 6.78904 20.6892 7.45073 18.6511C8.11279 16.6149 10.3095 15.4962 12.3458 16.1571C14.1303 16.7376 15.209 18.494 15.0044 20.2892L17.6482 21.1474C18.404 19.6357 19.8612 18.5385 21.5939 18.2819V15.5017C19.8245 15.1414 18.4874 13.573 18.4874 11.6969C18.4874 9.55466 20.2293 7.81277 22.3712 7.81277ZM22.3727 9.36672C21.7547 9.36721 21.1621 9.61282 20.725 10.0497C20.2879 10.4865 20.0419 11.0789 20.041 11.6969C20.041 12.9832 21.0871 14.026 22.3727 14.026C23.6582 14.026 24.7032 12.9828 24.7032 11.6969C24.7026 11.079 24.4569 10.4866 24.02 10.0497C23.583 9.61286 22.9906 9.36721 22.3727 9.36672ZM33.5491 15.9681C35.2043 15.9495 36.7549 16.9982 37.2931 18.6526C37.6138 19.6387 37.5304 20.6918 37.0585 21.616C36.8281 22.0713 36.5096 22.4764 36.1216 22.8079C35.7336 23.1395 35.2837 23.3907 34.798 23.5473C34.4091 23.6736 34.0028 23.7379 33.594 23.7378C32.9886 23.7378 32.3874 23.5958 31.8343 23.313C31.1551 22.9691 30.5929 22.4317 30.2188 21.7687L29.1293 22.1227L28.65 20.6436L29.738 20.2907C29.5338 18.4955 30.6132 16.7376 32.3966 16.1575C32.7788 16.0333 33.1673 15.9721 33.5491 15.9681ZM11.1488 17.522C10.6563 17.5223 10.1765 17.6783 9.77803 17.9677C9.37955 18.2572 9.08279 18.6652 8.93017 19.1334C8.73987 19.7211 8.79063 20.3603 9.0713 20.9106C9.35196 21.4608 9.83958 21.8772 10.427 22.0682C11.6496 22.4645 12.9663 21.795 13.3633 20.5713C13.7603 19.3506 13.089 18.0321 11.8668 17.6354C11.635 17.5598 11.3926 17.5216 11.1488 17.522ZM33.5966 17.522C33.3586 17.522 33.1158 17.5591 32.8774 17.6366C31.6567 18.0332 30.9843 19.3499 31.382 20.5713C31.4754 20.8629 31.6259 21.1331 31.8246 21.366C32.0234 21.5989 32.2665 21.79 32.5397 21.9281C32.8122 22.0681 33.1097 22.1527 33.415 22.177C33.7204 22.2014 34.0275 22.1649 34.3187 22.0697V22.0682C34.6102 21.9747 34.8803 21.8242 35.1132 21.6255C35.3461 21.4267 35.5372 21.1837 35.6754 20.9105C35.8152 20.6383 35.8996 20.3409 35.9236 20.0358C35.9477 19.7307 35.911 19.4239 35.8156 19.133C35.6629 18.6648 35.3661 18.2568 34.9675 17.9674C34.569 17.6781 34.0891 17.5222 33.5966 17.522ZM22.3712 20.0817C20.4866 20.0817 18.9541 21.616 18.9541 23.5013C18.9541 25.3852 20.4866 26.9187 22.3712 26.9187C24.2569 26.9187 25.7912 25.3852 25.7912 23.5013C25.7912 21.616 24.2569 20.0817 22.3712 20.0817ZM17.716 28.588L18.9719 29.5003L18.2991 30.4266C19.5198 31.7589 19.6788 33.8148 18.5771 35.3324C18.2161 35.8291 17.7425 36.2331 17.1951 36.5113C16.6477 36.7895 16.0421 36.9339 15.4281 36.9327C14.6359 36.9327 13.8378 36.691 13.1494 36.1917C11.4175 34.9317 11.0335 32.4988 12.2916 30.7658C12.5904 30.352 12.9684 30.0017 13.4037 29.7352C13.8389 29.4687 14.3228 29.2913 14.8272 29.2134C15.5794 29.093 16.3504 29.1977 17.0432 29.5144L17.716 28.588ZM27.029 28.588L27.7007 29.514C29.3466 28.7648 31.3498 29.2482 32.4526 30.7658C33.7115 32.4996 33.3249 34.9324 31.5919 36.1917C30.9321 36.674 30.136 36.9339 29.3188 36.9338C29.1141 36.9338 28.908 36.9179 28.7016 36.886C28.1972 36.8078 27.7134 36.6302 27.2784 36.3634C26.8433 36.0966 26.4655 35.7461 26.1671 35.332C25.0643 33.8159 25.2237 31.76 26.4436 30.4277L25.7708 29.5018L27.029 28.588ZM15.4388 30.718C15.3165 30.718 15.1934 30.7284 15.07 30.748C14.7672 30.795 14.4768 30.9016 14.2154 31.0615C13.954 31.2214 13.7269 31.4314 13.5472 31.6796C13.185 32.1803 13.036 32.8042 13.1328 33.4145C13.2296 34.0249 13.5643 34.572 14.0636 34.9361C14.5643 35.2982 15.188 35.4471 15.7983 35.3503C16.4085 35.2536 16.9556 34.919 17.3197 34.4198C18.0748 33.3796 17.8424 31.9194 16.8037 31.1636C16.4076 30.8739 15.9296 30.7179 15.4388 30.718ZM29.3065 30.7195C28.8313 30.7195 28.3531 30.8641 27.9401 31.1636C26.9018 31.9194 26.6694 33.3803 27.4256 34.4198C27.6048 34.6679 27.8313 34.878 28.0922 35.038C28.3531 35.1979 28.6431 35.3046 28.9455 35.3517C29.2478 35.4005 29.5567 35.3889 29.8545 35.3176C30.1523 35.2463 30.433 35.1166 30.6803 34.9361C31.7201 34.181 31.9496 32.7201 31.1956 31.6796C30.9791 31.3816 30.6949 31.1392 30.3665 30.9723C30.0382 30.8054 29.6749 30.7188 29.3065 30.7195Z" fill="#FEFEFE"/>
<path d="M23.1889 0.00032005C22.6766 0.00032005 22.3856 0.0132944 22.3585 0.0144065C22.0905 0.00337181 21.8223 -0.00132501 21.5541 0.00032005C20.5362 0.00032005 18.4292 0.0533294 15.7535 0.407714C11.3556 0.990446 7.65528 2.59148 5.05263 5.0388C2.59048 7.65591 0.989448 11.3566 0.407457 15.7545C-0.109662 19.6494 0.0122962 22.3603 0.0130376 22.3873C0.0122962 22.3873 -0.109662 25.0967 0.407457 28.9905C0.989448 33.3884 2.59048 37.0887 5.03855 39.6914C7.6538 42.1524 11.3552 43.7534 15.7531 44.3373C18.4269 44.6913 20.5332 44.7435 21.5508 44.7435C22.0642 44.7435 22.357 44.7313 22.3841 44.7295C22.3848 44.7313 22.6777 44.7435 23.1911 44.7435C24.2083 44.7435 26.3142 44.6917 28.9891 44.3373C33.3871 43.7531 37.0885 42.152 39.69 39.7051C42.1514 37.0894 43.7532 33.3881 44.3352 28.9905C44.8523 25.0945 44.7292 22.3844 44.7285 22.3577C44.7296 22.3577 44.8523 19.6471 44.3352 15.7545C43.7532 11.3566 42.1518 7.65628 39.7041 5.05252C37.0877 2.59148 33.3871 0.990817 28.9895 0.407714C26.3127 0.0533294 24.2061 0.00032005 23.1889 0.00032005ZM23.1885 0.310962C24.2635 0.310962 26.3246 0.36842 28.9484 0.71502C33.046 1.25846 36.7585 2.70862 39.4772 5.26567C42.0343 7.98509 43.4855 11.698 44.0275 15.7953C44.5465 19.7079 44.4178 22.3725 44.4178 22.3725C44.4178 22.3725 44.5465 25.0363 44.0275 28.9497C43.4855 33.0459 42.0339 36.7599 39.4772 39.4786V39.4797C36.7585 42.0364 33.046 43.4862 28.9484 44.0292C26.3276 44.3769 24.2661 44.4333 23.1911 44.4333C22.661 44.4333 22.3711 44.4207 22.3711 44.4207C22.3711 44.4207 22.0801 44.4337 21.5511 44.4337C20.4743 44.4337 18.414 44.3769 15.7931 44.0292C11.6966 43.4862 7.98409 42.0367 5.2643 39.4797V39.4786C2.70725 36.7599 1.25783 33.0463 0.714763 28.9497C0.195049 25.0363 0.323309 22.3725 0.323309 22.3725C0.323309 22.3725 0.194678 19.7076 0.714763 15.7953C1.25746 11.6976 2.70725 7.98471 5.2643 5.26567C7.98372 2.70862 11.6966 1.25846 15.7931 0.715391C18.4169 0.36842 20.4787 0.310962 21.5537 0.310962C22.0812 0.310962 22.3711 0.324678 22.3711 0.324678C22.3711 0.324678 22.6614 0.310962 23.1885 0.310962Z" fill="#E6E6E6"/>
<defs>
<linearGradient id="paint0_linear_1481_28282" x1="15.073" y1="30.7463" x2="29.1787" y2="15.5682" gradientUnits="userSpaceOnUse">
<stop stop-color="#3B6BB2"/>
<stop offset="1" stop-color="#22B3C1"/>
</linearGradient>
</defs>
</svg>
