<svg width="54" height="54" viewBox="0 0 54 54" fill="none" xmlns="http://www.w3.org/2000/svg">
<g filter="url(#filter0_b_137_214)">
<rect width="54" height="54" rx="16" fill="#FFFAEE"/>
<rect x="0.5" y="0.5" width="53" height="53" rx="15.5" stroke="#FFEEC6"/>
<path d="M26.6583 10.4237C26.8387 10.4237 26.985 10.2774 26.985 10.097V7.32668C26.985 7.14627 26.8387 7 26.6583 7C26.4779 7 26.3316 7.14627 26.3316 7.32668V10.097C26.3316 10.2774 26.4779 10.4237 26.6583 10.4237Z" fill="#FFC542"/>
<path d="M20.0704 11.95C20.1309 12.0548 20.2406 12.1133 20.3536 12.1133C20.4091 12.1133 20.4652 12.0991 20.5167 12.0695C20.6729 11.9792 20.7263 11.7794 20.6361 11.6231L19.2506 9.22494C19.1604 9.0687 18.9606 9.01545 18.8043 9.10545C18.6481 9.1957 18.5947 9.39555 18.6849 9.55179L20.0704 11.95Z" fill="#FFC542"/>
<path d="M13.1755 15.2994L15.5725 16.6846C15.624 16.7143 15.6802 16.7286 15.7356 16.7286C15.8485 16.7286 15.9583 16.67 16.0189 16.5652C16.1091 16.4091 16.0556 16.2092 15.8994 16.119L13.5024 14.7337C13.3462 14.6435 13.1464 14.6968 13.056 14.8531C12.9657 15.0093 13.0192 15.2092 13.1755 15.2994Z" fill="#FFC542"/>
<path d="M14.3745 22.7101C14.3745 22.5297 14.2282 22.3835 14.0478 22.3835H11.2787C11.0983 22.3835 10.9521 22.5297 10.9521 22.7101C10.9521 22.8905 11.0983 23.0368 11.2787 23.0368H14.0478C14.2282 23.0368 14.3745 22.8905 14.3745 22.7101Z" fill="#FFC542"/>
<path d="M15.5724 28.7354L13.1754 30.1211C13.0191 30.2113 12.9657 30.4112 13.0561 30.5674C13.1166 30.6721 13.2263 30.7307 13.3392 30.7307C13.3947 30.7307 13.4509 30.7164 13.5024 30.6867L15.8994 29.301C16.0557 29.2108 16.1091 29.0108 16.0187 28.8547C15.9284 28.6985 15.7286 28.645 15.5724 28.7354Z" fill="#FFC542"/>
<path d="M32.8015 12.0693C32.8529 12.0989 32.9089 12.113 32.9642 12.113C33.0772 12.113 33.1872 12.0542 33.2477 11.9492L34.6283 9.55102C34.7183 9.39462 34.6645 9.19494 34.5082 9.10486C34.3518 9.01477 34.1521 9.06868 34.062 9.22499L32.6814 11.6232C32.5915 11.7797 32.6452 11.9793 32.8015 12.0693Z" fill="#FFC542"/>
<path d="M37.5782 16.7325C37.6337 16.7325 37.6899 16.7183 37.7414 16.6886L40.1384 15.3029C40.2946 15.2126 40.348 15.0127 40.2577 14.8565C40.1676 14.7005 39.9679 14.647 39.8114 14.7372L37.4144 16.1229C37.2582 16.2132 37.2048 16.4131 37.2951 16.5693C37.3556 16.674 37.4653 16.7325 37.5782 16.7325Z" fill="#FFC542"/>
<path d="M42.0351 22.3871H39.2661C39.0857 22.3871 38.9395 22.5334 38.9395 22.7138C38.9395 22.8942 39.0857 23.0405 39.2661 23.0405H42.0351C42.2155 23.0405 42.3618 22.8942 42.3618 22.7138C42.3618 22.5334 42.2155 22.3871 42.0351 22.3871Z" fill="#FFC542"/>
<path d="M40.1337 30.1214L37.7366 28.7357C37.5803 28.6455 37.3806 28.6988 37.2903 28.8551C37.1999 29.0113 37.2534 29.2111 37.4096 29.3014L39.8067 30.6871C39.8582 30.7168 39.9143 30.731 39.9699 30.731C40.0827 30.731 40.1925 30.6725 40.253 30.5678C40.3433 30.4115 40.2899 30.2117 40.1337 30.1214Z" fill="#FFC542"/>
<path d="M16.3324 22.7101C16.3324 16.9687 21.0011 12.2977 26.7397 12.2977C32.4802 12.2977 37.1506 16.9687 37.1506 22.7101C37.1506 22.755 37.1497 22.7998 37.1488 22.8446C37.1479 22.8935 37.1469 22.9432 37.147 22.9858C37.0724 26.7954 35.4107 29.0046 33.8037 31.1409C32.2457 33.2121 30.6363 35.3515 30.5421 38.8635H22.94C22.8457 35.3514 21.2362 33.2115 19.6784 31.1404C18.0716 29.0041 16.4101 26.7951 16.3351 22.9822C16.3324 22.8916 16.3324 22.8008 16.3324 22.7101Z" fill="#FFC542"/>
<path d="M30.5375 39.5168H22.9442V41.2107H30.5375V39.5168Z" fill="#FFC542"/>
<path d="M22.9442 43.5619V41.8641H30.5375V43.5619H22.9442Z" fill="#FFC542"/>
<path d="M26.7399 46.1443C28.2261 46.1443 29.4599 45.3048 29.6681 44.2153H23.8145C24.0225 45.3048 25.2551 46.1443 26.7399 46.1443Z" fill="#FFC542"/>
<path d="M23.1414 24.878C22.827 25.019 22.6865 25.3881 22.8275 25.7025L24.8059 30.1137C24.9469 30.4281 25.316 30.5686 25.6304 30.4276C25.9447 30.2866 26.0853 29.9175 25.9443 29.6031L23.9659 25.1919C23.8249 24.8776 23.4557 24.737 23.1414 24.878Z" fill="white"/>
<path d="M30.2875 24.9933C29.9731 24.8523 29.604 24.9928 29.463 25.3072L27.4843 29.7182C27.3433 30.0326 27.4838 30.4017 27.7981 30.5427C28.1125 30.6837 28.4816 30.5432 28.6226 30.2289L30.6013 25.8178C30.7423 25.5034 30.6018 25.1343 30.2875 24.9933Z" fill="white"/>
</g>
<defs>
<filter id="filter0_b_137_214" x="-54" y="-54" width="162" height="162" filterUnits="userSpaceOnUse" color-interpolation-filters="sRGB">
<feFlood flood-opacity="0" result="BackgroundImageFix"/>
<feGaussianBlur in="BackgroundImageFix" stdDeviation="27"/>
<feComposite in2="SourceAlpha" operator="in" result="effect1_backgroundBlur_137_214"/>
<feBlend mode="normal" in="SourceGraphic" in2="effect1_backgroundBlur_137_214" result="shape"/>
</filter>
</defs>
</svg>
